<svg width="74" height="56" viewBox="0 0 74 56" fill="none" xmlns="http://www.w3.org/2000/svg">
<path fill-rule="evenodd" clip-rule="evenodd" d="M0 0.158192C0 0.262282 3.87991 0.316384 11.3313 0.316384C17.5634 0.316384 22.6625 0.362893 22.6625 0.419684C22.6625 0.476475 22.4544 0.975096 22.2 1.5275C21.9456 2.07991 21.7375 2.59435 21.7375 2.67044C21.7375 2.74669 21.9282 2.89207 22.1615 2.99363C23.8385 3.72368 24.4353 5.74269 23.6629 8.07286C23.3148 9.12325 22.3119 11.265 21.9617 11.7062C21.5722 12.1968 17.4208 19.7307 17.4208 19.9468C17.4208 20.0113 17.363 20.0877 17.2924 20.1168C17.2218 20.1458 16.9173 20.6322 16.6161 21.1977C13.2337 27.545 11.6516 30.3109 10.9073 31.1774C10.674 31.4489 10.4833 31.73 10.4833 31.8021C10.4833 32.0377 9.57545 32.6034 8.76145 32.8753L7.96487 33.1412L7.52965 34.8023C7.29023 35.7158 7.09382 36.5523 7.09305 36.661C7.09197 36.8157 8.34504 36.8588 12.8486 36.8588C16.0148 36.8588 19.553 36.8121 20.7111 36.7551L22.8167 36.6515V34.7176V32.7837L21.8687 32.7135C20.6645 32.6241 20.2792 32.2334 20.3912 31.2146C20.4575 30.611 22.2859 26.9434 24.3597 23.2542C24.6776 22.6887 25.2238 21.6565 25.5736 20.9605C26.6045 18.909 27.4153 17.4802 27.5485 17.4802C27.617 17.4802 27.8903 18.0497 28.1558 18.7458C28.4214 19.4418 28.7135 20.1893 28.8048 20.4068C28.8962 20.6243 29.4321 22.048 29.9957 23.5706C30.5594 25.0932 31.1188 26.5347 31.2393 26.774C31.3595 27.0132 31.4196 27.209 31.3729 27.209C31.3262 27.209 31.3937 27.4191 31.5231 27.6757C31.7263 28.0788 32.264 29.5112 33.0999 31.8757C33.2229 32.2237 33.4184 32.722 33.5343 32.983C33.6501 33.2441 33.9939 34.1339 34.2982 34.9604C34.6024 35.787 34.9302 36.6412 35.0262 36.8588C35.1224 37.0763 35.2178 37.3254 35.238 37.4124C35.2584 37.4994 35.3466 37.7486 35.434 37.9661L35.5929 38.3616L35.6296 37.9661C35.7366 36.81 35.871 32.2125 36.0042 25.1525L36.1043 19.8531L35.7213 18.7458C35.5109 18.1367 34.9588 16.535 34.4948 15.1864C34.0308 13.8379 33.3225 11.7901 32.9211 10.6359L32.1911 8.53715L32.4852 7.94662C32.6471 7.62169 33.07 6.79498 33.4252 6.10938C34.0793 4.84637 34.1917 4.33082 33.9213 3.83394C33.54 3.13394 32.3679 0.429175 32.4217 0.373808C32.455 0.339797 34.6422 0.330621 37.2821 0.353718L42.0819 0.39548L41.2857 2.0565C40.2275 4.26359 40.2267 4.6181 41.2743 6.76904L42.0672 8.39699L41.8351 9.22102C41.7075 9.6744 41.294 10.9706 40.9163 12.1017C40.5386 13.2328 40.2071 14.2294 40.1798 14.3164C40.1524 14.4034 40.0881 14.5814 40.0372 14.7119C39.9862 14.8424 39.7058 15.6254 39.4139 16.452C39.1223 17.2785 38.7345 18.3742 38.5525 18.8867C38.2477 19.7446 38.2224 20.1094 38.2352 23.4743C38.2486 27.0641 38.3721 33.6405 38.4552 35.1977C38.4783 35.6328 38.5094 36.487 38.5242 37.096C38.5559 38.401 38.6232 38.3296 39.378 36.1917C39.6632 35.3839 40.0175 34.4384 40.1655 34.0904C40.5798 33.1156 40.6237 33.0028 41.7056 30.1356C42.8112 27.206 42.8219 27.1783 43.298 26.0226C43.4772 25.5876 43.927 24.413 44.2976 23.4124C44.6684 22.4119 45.0278 21.4508 45.0964 21.2768C45.1651 21.1028 45.233 20.9249 45.2471 20.8814C45.2615 20.8379 45.4123 20.4819 45.5825 20.0904C45.7527 19.6989 46.0565 18.9038 46.2579 18.3234C46.605 17.3222 46.6351 17.2852 46.8477 17.5965C47.1257 18.0037 47.6219 18.9046 48.3171 20.2636C48.6104 20.8374 49.0614 21.6737 49.3191 22.1224C49.5769 22.5708 49.7465 22.9379 49.6959 22.9379C49.6454 22.9379 49.681 23.0332 49.7753 23.1498C49.8695 23.2663 50.3024 24.0615 50.7372 24.9167C51.1719 25.7719 51.9737 27.2896 52.5189 28.2895C53.6443 30.3531 53.9415 31.2524 53.7163 31.9116C53.5473 32.4058 52.8568 32.7223 51.9156 32.7369L51.3375 32.7458V34.6985V36.6514L53.5344 36.7545C54.7426 36.8111 58.3004 36.8578 61.4404 36.8581L67.1495 36.8588L66.7323 35.1582C66.5029 34.223 66.3012 33.4398 66.2841 33.4181C66.2485 33.3727 66.185 33.1264 66.1568 32.9244C66.1461 32.8486 65.7974 32.7402 65.3819 32.6836C64.7856 32.6024 64.4956 32.4507 64.0071 31.9643C63.4646 31.4239 62.2833 29.7279 62.2833 29.4892C62.2833 29.4416 62.1178 29.176 61.9153 28.899C61.7128 28.622 61.4129 28.1107 61.2487 27.7627C60.959 27.1488 59.8709 25.1604 58.0454 21.9096C57.2029 20.4093 56.2101 18.5803 53.4937 13.5254C52.8391 12.3073 52.146 11.026 51.9532 10.678C50.6626 8.34558 50.3496 7.37254 50.4016 5.85311C50.443 4.63534 50.8665 3.81275 51.7251 3.28249C52.1123 3.0433 52.4958 2.84746 52.5772 2.84746C52.6584 2.84746 52.725 2.81772 52.725 2.78133C52.725 2.71078 52.0353 1.21207 51.7917 0.753627C51.7115 0.602554 51.6458 0.442305 51.6458 0.397695C51.6458 0.352927 56.6755 0.316384 62.8229 0.316384C70.1716 0.316384 74 0.262124 74 0.158192C74 0.0531525 61.5638 0 37 0C12.4362 0 0 0.0531525 0 0.158192ZM43.1038 1.71211C42.98 1.95763 42.77 2.25107 42.6373 2.36418C42.5045 2.47729 42.3958 2.66791 42.3958 2.78766C42.3958 2.90757 42.3374 3.00565 42.2659 3.00565C42.1945 3.00565 42.0141 3.23693 41.865 3.51977C41.716 3.80262 41.4275 4.16188 41.224 4.31817C40.4461 4.91598 40.9107 4.09892 42.3188 2.39345C42.8275 1.77729 43.2629 1.27139 43.2863 1.26933C43.3096 1.26728 43.2274 1.46644 43.1038 1.71211ZM45.2479 1.74011C45.1955 1.82712 45.07 1.8972 44.969 1.89593C44.8586 1.89435 44.8778 1.83218 45.0167 1.74011C45.3128 1.54364 45.3662 1.54364 45.2479 1.74011ZM32.7219 3.93345C32.955 4.15175 33.1458 4.39078 33.1458 4.4645C33.1458 4.70938 32.62 4.29381 31.3729 3.06371L30.1396 1.84705L31.2188 2.6918C31.8123 3.15641 32.4888 3.71514 32.7219 3.93345ZM33.1324 3.10816C33.3034 3.3146 33.7755 4.42938 33.692 4.42938C33.5935 4.42938 32.5625 2.89808 32.2934 2.35216L32.0307 1.81921L32.5064 2.37288C32.7681 2.6774 33.0498 3.00818 33.1324 3.10816ZM44.3883 2.49153C43.5885 3.42264 42.5374 4.37844 41.9253 4.73137L41.2849 5.10075L41.5259 4.72551C41.6583 4.51907 42.0991 4.08531 42.5053 3.76149C44.9305 1.82823 44.9963 1.78377 44.3883 2.49153ZM45.325 2.75143C45.325 2.7856 45.2174 2.856 45.0857 2.90789C44.9485 2.96183 44.8867 2.93525 44.9407 2.84572C45.0312 2.69528 45.325 2.6233 45.325 2.75143ZM31.7238 4.02488C32.3406 4.4452 32.8867 4.8576 32.9371 4.94145C33.132 5.26479 31.4065 4.12723 30.6719 3.44795C30.1787 2.99173 30.3275 3.07336 31.7238 4.02488ZM44.7083 3.16163C44.7083 3.35747 43.4987 4.19019 43.3847 4.07297C43.3383 4.02551 43.5999 3.76908 43.9659 3.50316C44.7328 2.94585 44.7083 2.95724 44.7083 3.16163ZM45.5563 3.73555C44.9077 4.25157 41.7792 5.67293 41.7792 5.45162C41.7792 5.42108 42.4903 5.04965 43.3594 4.62617C45.9164 3.38056 46.0921 3.30922 45.5563 3.73555ZM31.0646 4.58725C31.8277 4.95473 32.3681 5.2882 32.2655 5.32807C32.0847 5.39846 29.3715 4.08088 29.0604 3.77177C28.8474 3.55995 29.3931 3.78206 31.0646 4.58725ZM30.79 5.27333C31.6097 5.54875 32.3061 5.85864 32.3374 5.96194C32.3702 6.07046 31.7546 5.91559 30.8816 5.59573C30.0496 5.29073 29.1432 4.9715 28.8677 4.88608C28.5922 4.80081 28.3667 4.69293 28.3667 4.64673C28.3667 4.51907 29.1403 4.71919 30.79 5.27333ZM44.7083 5.13381C44.7083 5.22619 43.3313 5.86054 42.9616 5.93853C42.8065 5.97128 42.529 6.04325 42.345 6.09846L42.0104 6.19876L42.3282 5.95894C42.5028 5.82685 43.0578 5.57358 43.5615 5.39577C44.5182 5.05819 44.7083 5.01485 44.7083 5.13381ZM29.339 5.76341C30.3084 5.87399 31.873 6.25492 32.1437 6.44601C32.4217 6.64233 32.3913 6.65372 31.8354 6.56197C31.4963 6.50581 30.8372 6.35173 30.3708 6.21932C29.9045 6.08691 29.3893 5.95214 29.2258 5.91955C29.0626 5.88712 28.8545 5.77717 28.7633 5.67546C28.6423 5.54004 28.652 5.52185 28.7994 5.60759C28.9103 5.67198 29.1531 5.74206 29.339 5.76341ZM45.9321 6.00734C45.4835 6.27675 43.4076 6.80226 42.792 6.80226C41.5629 6.80226 43.017 6.26029 44.6968 6.09229C45.1567 6.04642 45.5672 5.97365 45.6088 5.93094C45.6506 5.88807 45.7946 5.85532 45.9289 5.85785C46.1492 5.86228 46.1495 5.87684 45.9321 6.00734ZM29.4532 6.5656C30.6963 6.68124 31.5948 6.88753 31.8078 7.10615C32.0193 7.32319 31.2915 7.33632 30.525 7.1294C30.2282 7.0492 29.5864 6.90224 29.099 6.80258C28.6115 6.70307 28.2125 6.55137 28.2125 6.46531C28.2125 6.37941 28.2712 6.34619 28.3429 6.39175C28.4148 6.43731 28.9144 6.51562 29.4532 6.5656ZM46.3914 6.70782C46.2551 6.84292 43.3779 7.59275 43.0125 7.58832C42.6806 7.5842 42.6639 7.56158 42.8923 7.4249C43.3404 7.15693 46.6151 6.48572 46.3914 6.70782ZM30.9104 7.59512C31.4915 7.70965 31.4736 7.71724 30.6021 7.7242C30.0933 7.72816 29.1568 7.63482 28.5208 7.51665L27.3646 7.30167L28.8292 7.38773C29.6347 7.43487 30.5713 7.52836 30.9104 7.59512ZM45.9417 7.85028C45.1361 7.97304 44.1996 8.0534 43.8604 8.02904C43.3463 7.99202 43.4361 7.95564 44.4 7.8101C45.0359 7.71424 45.9725 7.63372 46.4813 7.6315C47.3477 7.62755 47.3134 7.64131 45.9417 7.85028ZM31.28 8.22836C31.5945 8.23026 31.6313 8.26364 31.45 8.3826C31.2504 8.51358 27.9763 8.50488 26.825 8.37026C26.151 8.29148 29.0216 8.10624 29.9695 8.1673C30.4695 8.19957 31.0592 8.2271 31.28 8.22836ZM46.965 8.65232C46.807 8.81462 43.7574 8.85369 43.3979 8.69803C43.2071 8.61546 43.8487 8.56041 45.081 8.55345C46.1762 8.54743 47.0241 8.59189 46.965 8.65232ZM48.0633 8.65105C47.9159 8.6906 47.6384 8.69202 47.4466 8.65421C47.2549 8.61641 47.3754 8.58398 47.7146 8.58224C48.0537 8.5805 48.2107 8.6115 48.0633 8.65105ZM36.9397 9.04606C36.7902 9.58597 36.5739 15.269 36.4563 21.7514C36.3994 24.8836 36.3328 27.4819 36.3081 27.5254C36.2583 27.6137 35.9976 37.5045 36.0059 38.9943C36.0096 39.6586 36.1418 40.2759 36.4461 41.0508C36.6853 41.6599 36.903 42.1829 36.9299 42.2131C37.0262 42.3218 37.6262 40.8007 37.8664 39.8389C38.0143 39.2468 38.0769 38.5709 38.0241 38.1349C37.9762 37.7375 37.8945 33.6751 37.8425 29.1073C37.7907 24.5395 37.7204 20.7122 37.6865 20.6023C37.6524 20.4924 37.6182 18.1788 37.6102 15.4611C37.5968 10.8213 37.4859 9.13591 37.1734 8.81525C37.1001 8.73995 36.9961 8.84246 36.9397 9.04606ZM27.3646 9.17688C26.9406 9.22418 26.5244 9.22687 26.4396 9.18289C26.196 9.05634 27.1611 8.9214 27.6729 9.0103C28.064 9.07833 28.0166 9.10395 27.3646 9.17688ZM31.2541 9.1125C31.1461 9.22323 29.0189 9.65557 28.675 9.63659C28.5478 9.62963 28.86 9.49311 29.3687 9.33333C30.2584 9.05381 31.4469 8.9146 31.2541 9.1125ZM44.2517 9.41369C45.2165 9.62187 46.1009 9.94743 45.74 9.96136C45.247 9.98034 43.3418 9.57189 43.0945 9.39424C42.7076 9.11598 42.8867 9.11914 44.2517 9.41369ZM31.45 9.71442C30.8689 10.0313 26.1931 11.427 26.0847 11.3158C26.0031 11.2321 31.2043 9.49785 31.5271 9.50102C31.7978 9.50386 31.7884 9.52981 31.45 9.71442ZM28.3249 9.74527C28.2737 9.79778 28.1407 9.80348 28.0295 9.75776C27.9065 9.7073 27.943 9.66981 28.1226 9.66221C28.2851 9.65541 28.3761 9.69275 28.3249 9.74527ZM44.7083 10.3459C45.2595 10.5476 46.2801 10.9151 46.9764 11.1627C48.5303 11.7154 48.5409 11.879 46.9905 11.3792C46.3712 11.1796 45.8299 11.0083 45.7875 10.9985C44.6767 10.7401 43.9281 10.4919 43.555 10.2586C42.8858 9.83971 43.4386 9.88163 44.7083 10.3459ZM46.3624 10.0616C46.3112 10.1142 46.1782 10.1199 46.067 10.0741C45.944 10.0237 45.9805 9.98619 46.1601 9.9786C46.3226 9.9718 46.4136 10.0091 46.3624 10.0616ZM31.2414 10.5384C30.2722 11.0559 28.2968 11.8669 28.0326 11.8559C27.9196 11.8511 28.3821 11.5646 29.0604 11.2193C30.8216 10.3227 32.8059 9.70319 31.2414 10.5384ZM43.8293 10.776C45.2934 11.5343 45.8433 11.8658 45.4792 11.7711C44.8426 11.6054 42.8653 10.7384 42.7725 10.5842C42.6205 10.3318 43.161 10.4301 43.8293 10.776ZM31.9907 10.9134C31.8696 11.1144 30.7381 11.7926 30.1396 12.0228C29.4737 12.2789 29.8305 11.9892 30.9875 11.3341C32.1054 10.7014 32.1228 10.6941 31.9907 10.9134ZM43.6142 11.6164C44.9411 12.575 44.9519 12.6141 43.7062 11.95C42.5073 11.3107 42.0118 10.9153 42.4097 10.9153C42.5386 10.9153 43.0806 11.2307 43.6142 11.6164ZM32.159 11.6888C31.8945 11.9889 29.5866 13.4463 29.3762 13.4463C29.1532 13.4463 30.9167 12.1107 31.5991 11.7628C32.4629 11.3224 32.4848 11.3194 32.159 11.6888ZM43.2245 12.2547C44.1021 12.7969 45.1308 13.6045 44.9437 13.6045C44.7715 13.6045 43.8814 13.095 43.6642 12.8721C43.5481 12.753 43.3934 12.6554 43.3208 12.6554C43.2482 12.6554 43.097 12.5635 42.9849 12.4511C42.873 12.3388 42.6097 12.1253 42.4 11.9766C41.7144 11.4903 42.3155 11.6931 43.2245 12.2547ZM32.3733 12.5247C32.1169 12.8879 31.6831 13.3685 31.4095 13.5925C31.1357 13.8167 30.4612 14.4271 29.9105 14.9492C28.9383 15.8708 28.9294 15.8754 29.6017 15.1073C29.9825 14.6723 30.468 14.1028 30.6806 13.8418C31.024 13.4201 32.6893 11.8644 32.7973 11.8644C32.8204 11.8644 32.6297 12.1615 32.3733 12.5247ZM46.7125 12.1808C47.0093 12.3475 47.1827 12.4839 47.0979 12.4839C47.0131 12.4839 46.7009 12.3475 46.4042 12.1808C46.1074 12.0141 45.934 11.8777 46.0187 11.8777C46.1035 11.8777 46.4157 12.0141 46.7125 12.1808ZM42.9983 13.1189C43.2024 13.3424 43.6534 13.8367 44.0004 14.2172C44.3474 14.5976 44.5529 14.8824 44.4572 14.85C44.1771 14.7551 42.086 12.7898 41.9138 12.4597C41.7613 12.1673 41.7696 12.1666 42.1919 12.4353C42.4313 12.5877 42.7942 12.8952 42.9983 13.1189ZM32.667 13.2486C32.342 13.8521 31.1324 15.2298 31.0247 15.1191C30.9921 15.0857 31.0701 14.927 31.1982 14.7664C31.3262 14.6059 31.7512 14.0652 32.1427 13.565C32.5341 13.0648 32.8841 12.6554 32.9204 12.6554C32.9567 12.6554 32.8427 12.9224 32.667 13.2486ZM42.18 13.565C42.4205 13.8913 42.78 14.3362 42.9787 14.5537C43.1775 14.7712 43.4158 15.0915 43.5085 15.2655C43.6995 15.6246 42.2411 14.0717 41.7628 13.4068C41.5906 13.1674 41.5157 12.9718 41.5962 12.9718C41.6766 12.9718 41.9393 13.2388 42.18 13.565ZM44.4 13.7705C44.4 13.8415 44.5216 13.9393 44.6701 13.9875C44.8187 14.0359 45.0329 14.2275 45.1459 14.4134C45.3065 14.6771 45.194 14.635 44.6317 14.2207C43.794 13.6033 43.6639 13.444 44.0915 13.5586C44.2611 13.6042 44.4 13.6994 44.4 13.7705ZM32.9058 14.5785C32.5888 15.2162 30.969 17.7175 30.873 17.7175C30.8356 17.7175 30.9474 17.4861 31.1215 17.2034C31.2957 16.9207 31.5855 16.4045 31.7656 16.0565C32.2014 15.2148 33.0455 13.9234 33.1139 13.9937C33.144 14.0245 33.0503 14.2876 32.9058 14.5785ZM42.4984 15.6316C42.6733 15.9682 43.011 16.5931 43.2482 17.02C43.4856 17.4472 43.6085 17.7254 43.5214 17.6384C43.2569 17.3744 41.8421 15.1445 41.5641 14.5537L41.3037 14L41.7419 14.5097C41.9828 14.7902 42.3232 15.295 42.4984 15.6316ZM33.6034 15.3543C33.5154 15.5229 33.4774 15.661 33.5189 15.661C33.5605 15.661 33.4964 15.9467 33.3763 16.296C33.2562 16.6453 33.1534 16.9648 33.1477 17.0061C33.1008 17.3485 32.0112 20.2443 31.952 20.1836C31.9057 20.1361 32.8526 16.8957 33.3278 15.4755C33.4347 15.1559 33.5764 14.9289 33.6427 14.971C33.709 15.0131 33.6913 15.1855 33.6034 15.3543ZM41.4437 16.5355C41.6282 17.1471 41.7792 17.6941 41.7792 17.7512C41.7792 17.8083 41.8402 18.02 41.9148 18.2214C41.9895 18.4227 42.0507 18.6232 42.0508 18.6667C42.051 18.7102 42.1598 19.0128 42.2927 19.339C42.4256 19.6653 42.4823 19.9322 42.4187 19.9322C42.236 19.9322 40.9362 16.3128 40.8042 15.4359C40.7225 14.8938 40.7358 14.8538 40.9095 15.1195C41.0188 15.2869 41.2593 15.9241 41.4437 16.5355ZM45.3181 15.5732C45.6221 15.9492 45.4244 15.8665 44.9251 15.4085C44.6262 15.1346 44.5839 15.0528 44.7981 15.1627C44.9746 15.2532 45.2086 15.438 45.3181 15.5732ZM32.1377 17.2034C32.005 17.5297 31.8222 17.8678 31.7314 17.9548C31.6231 18.0586 31.6259 17.9942 31.7394 17.7677C31.8345 17.5778 31.98 17.2396 32.0627 17.0162C32.1454 16.7929 32.2506 16.6102 32.2962 16.6102C32.3419 16.6102 32.2705 16.8772 32.1377 17.2034ZM40.6212 17.8757C40.7313 18.3332 40.8576 19.019 40.9268 19.5367C40.9735 19.8847 41.1085 20.739 41.2271 21.435C41.5354 23.2454 41.65 24.1237 41.5669 24.0382C41.4676 23.9365 40.5485 19.8444 40.4492 19.0621C40.4049 18.7141 40.3049 18.1802 40.2269 17.8757C39.9942 16.9675 40.0688 16.6002 40.3554 17.2429C40.4911 17.5475 40.6109 17.8322 40.6212 17.8757ZM34.0036 18.0698C33.8627 19.1596 33.5741 20.2486 33.426 20.2486C33.3609 20.2486 33.3664 20.0883 33.4383 19.8927C33.5101 19.697 33.6583 19.0205 33.7674 18.3898C33.9964 17.0681 34.1623 16.8433 34.0036 18.0698ZM31.7771 20.8299C31.5954 21.1506 31.5516 21.0479 31.7004 20.6502C31.7531 20.5088 31.8289 20.4264 31.8686 20.4672C31.9083 20.5079 31.8672 20.6711 31.7771 20.8299ZM33.4022 21.0345C33.3123 21.3798 33.2135 21.6362 33.1824 21.6045C33.0842 21.5035 33.329 20.4068 33.4499 20.4068C33.5135 20.4068 33.4919 20.6893 33.4022 21.0345ZM33.0937 22.3446C33.051 22.4535 33.016 22.3644 33.016 22.1469C33.016 21.9294 33.051 21.8405 33.0937 21.9492C33.1366 22.058 33.1366 22.236 33.0937 22.3446ZM4.47083 40.2474C4.25885 40.3687 3.87729 40.7576 3.62292 41.1116C3.36854 41.4656 3.09289 41.7569 3.01041 41.7589C2.92778 41.761 2.53805 41.4068 2.14415 40.9717C1.4837 40.2422 1.37255 40.1808 0.713946 40.1808C0.102829 40.1808 0 40.2263 0 40.4972C0 40.708 0.102829 40.8136 0.308333 40.8136C0.582442 40.8136 0.616667 40.9191 0.616667 41.7627C0.616667 42.6063 0.582442 42.7119 0.308333 42.7119C0.0962 42.7119 0 42.8174 0 43.0498C0 43.3608 0.0570416 43.3796 0.715333 43.287C1.10861 43.2317 1.55955 43.1864 1.71742 43.1864C1.87513 43.1864 2.00417 43.0797 2.00417 42.9492C2.00417 42.8174 1.86711 42.7119 1.69583 42.7119C1.46967 42.7119 1.3875 42.6063 1.3875 42.3164C1.3875 41.7823 1.48586 41.8143 2.11748 42.5537C2.41471 42.9017 2.73368 43.1864 2.82634 43.1864C2.91884 43.1864 3.29207 42.8868 3.6556 42.5208L4.31667 41.8551V42.2835C4.31667 42.5587 4.23403 42.7119 4.08542 42.7119C3.957 42.7119 3.85417 42.8525 3.85417 43.0282C3.85417 43.3122 3.957 43.3446 4.85625 43.3446C5.73485 43.3446 5.85833 43.3079 5.85833 43.0468C5.85833 42.8792 5.71974 42.7115 5.54198 42.6639C5.26125 42.5885 5.23088 42.4749 5.27219 41.6567C5.30703 40.9676 5.37672 40.7345 5.54784 40.7345C5.67395 40.7345 5.80037 40.6098 5.82904 40.4576C5.85756 40.3053 5.78911 40.1798 5.67688 40.1786C5.56465 40.1775 5.33417 40.1428 5.16458 40.1017C4.995 40.0606 4.68281 40.1262 4.47083 40.2474ZM17.1416 40.3451C16.2518 41.1958 17.0972 42.2373 18.6771 42.2373C19.0897 42.2373 19.2708 42.3064 19.2708 42.464C19.2708 42.952 17.9615 42.9525 17.5668 42.4645C17.4657 42.3395 17.2181 42.2373 17.0166 42.2373C16.7004 42.2373 16.65 42.3134 16.65 42.791C16.65 43.2795 16.6964 43.3446 17.0442 43.3446C17.2611 43.3446 17.7517 43.4255 18.1343 43.5245C19.4131 43.8548 20.6741 43.1115 20.4422 42.1639C20.333 41.7172 19.9242 41.4478 19.2181 41.3571C17.9638 41.1959 17.5631 40.9735 18.1272 40.7514C18.6986 40.5264 19.3715 40.6579 19.7134 41.0613C20.1729 41.6036 20.4171 41.4821 20.4744 40.6826L20.5219 40.0226H19.0004C17.6825 40.0226 17.4339 40.0658 17.1416 40.3451ZM20.9667 40.7286C20.9667 41.2799 21.0237 41.4463 21.2124 41.4463C21.3475 41.4463 21.4944 41.304 21.5386 41.1299C21.5951 40.9089 21.7489 40.8136 22.0495 40.8136C22.4635 40.8136 22.4818 40.8474 22.5325 41.7089C22.5766 42.4564 22.5409 42.6162 22.3156 42.6766C22.1672 42.7163 22.0458 42.8829 22.0458 43.0468C22.0458 43.3139 22.1743 43.3446 23.2904 43.3446C24.3927 43.3446 24.5292 43.313 24.4837 43.0678C24.4555 42.9156 24.2769 42.7682 24.087 42.7403C23.7737 42.6946 23.7417 42.6029 23.7417 41.7516C23.7417 40.8148 23.7423 40.8136 24.2042 40.8136C24.504 40.8136 24.6667 40.8938 24.6667 41.0415C24.6667 41.341 24.8874 41.4708 25.1924 41.3508C25.3569 41.2861 25.4375 41.0567 25.4375 40.6531V40.0519L23.2021 40.0315L20.9667 40.0109V40.7286ZM25.7458 40.3969C25.7458 40.6261 25.7979 40.8052 25.8615 40.7949C26.2917 40.7251 26.3625 40.8618 26.3625 41.7627C26.3625 42.6063 26.3283 42.7119 26.0542 42.7119C25.8487 42.7119 25.7458 42.8174 25.7458 43.0282C25.7458 43.3165 25.8487 43.3446 26.9021 43.3446C27.9318 43.3446 28.0583 43.312 28.0583 43.0468C28.0583 42.8818 27.9207 42.7119 27.75 42.666C27.4648 42.5896 27.2968 42.0781 27.5573 42.0799C27.7313 42.081 28.675 43.0221 28.675 43.1945C28.675 43.2771 29.0219 43.3446 29.4458 43.3446C30.1138 43.3446 30.2167 43.3024 30.2167 43.0282C30.2167 42.8262 30.1138 42.7119 29.9322 42.7119C29.7758 42.7119 29.5166 42.563 29.3563 42.3812C29.0683 42.0549 29.07 42.0465 29.4865 41.7353C29.9867 41.3614 30.0344 40.8216 29.6031 40.4209C29.3595 40.1947 28.9389 40.1216 27.5218 40.0588L25.7458 39.9802V40.3969ZM30.3708 40.3284C30.3708 40.4965 30.4922 40.6736 30.6406 40.722C30.7891 40.7704 31.2052 41.1037 31.5656 41.4628C32.2218 42.1164 32.4239 42.7119 31.9896 42.7119C31.8612 42.7119 31.7583 42.8525 31.7583 43.0282C31.7583 43.3165 31.8612 43.3446 32.9146 43.3446C33.968 43.3446 34.0708 43.3165 34.0708 43.0282C34.0708 42.8174 33.968 42.7119 33.7625 42.7119C33.2699 42.7119 33.3914 42.1966 34.0711 41.4044C34.5249 40.8756 34.7697 40.7071 34.9961 40.7678C35.246 40.8349 35.3042 40.7724 35.3042 40.4366C35.3042 40.0321 35.281 40.0226 34.2899 40.0226H33.2755L33.3706 40.4673C33.4397 40.7897 33.3863 40.9857 33.1767 41.1804C32.9041 41.4335 32.8725 41.4318 32.6238 41.1499C32.4431 40.9449 32.392 40.7204 32.4613 40.4367L32.5626 40.0226H31.4667C30.4863 40.0226 30.3708 40.0549 30.3708 40.3284ZM39.0812 40.2419C38.3986 40.5472 38.1743 40.9126 38.1353 41.7833C38.1021 42.5231 38.1297 42.5834 38.6679 42.9463C39.4647 43.4837 40.445 43.6798 41.3446 43.4819C43.4258 43.024 43.9622 41.3414 42.349 40.332C41.7597 39.9634 39.8233 39.91 39.0812 40.2419ZM55.2206 40.1933C54.8403 40.3456 54.764 40.4165 54.0163 41.3106L53.5345 41.8866L52.7942 41.0338C52.092 40.2249 52.0154 40.1808 51.3102 40.1808C50.7327 40.1808 50.5667 40.2371 50.5667 40.4329C50.5667 40.5715 50.7054 40.7223 50.875 40.7677C51.1392 40.8387 51.1833 40.9835 51.1833 41.7812C51.1833 42.6063 51.1483 42.7119 50.875 42.7119C50.6695 42.7119 50.5667 42.8174 50.5667 43.0282C50.5667 43.3771 50.7235 43.4033 51.8555 43.244C52.3091 43.1803 52.5708 43.0645 52.5708 42.9276C52.5708 42.809 52.4321 42.7119 52.2625 42.7119C52.0178 42.7119 51.9542 42.6063 51.9542 42.2012V41.6906L52.6234 42.4385C52.9914 42.8498 53.3534 43.1864 53.4275 43.1864C53.5017 43.1864 53.9042 42.8484 54.322 42.435C54.7398 42.0217 55.037 41.814 54.9825 41.9734C54.928 42.1327 54.8833 42.3642 54.8833 42.4875C54.8833 42.6109 54.7867 42.7119 54.6686 42.7119C54.4361 42.7119 54.23 43.0961 54.3801 43.25C54.4307 43.3021 54.9462 43.3446 55.5257 43.3446C56.3868 43.3446 56.5792 43.2986 56.5792 43.0925C56.5792 42.9539 56.4404 42.8031 56.2708 42.7577C56.0024 42.6858 55.9625 42.542 55.9625 41.6482C55.9625 40.8106 56.0041 40.638 56.1888 40.7106C56.4534 40.8148 56.6051 40.634 56.4534 40.3953C56.293 40.1433 55.6206 40.033 55.2206 40.1933ZM59.0406 40.2994C58.9153 40.4518 58.5357 41.0556 58.197 41.6414C57.7297 42.4494 57.4975 42.707 57.2344 42.7092C56.9911 42.7111 56.8875 42.8065 56.8875 43.0282C56.8875 43.3095 56.9903 43.3446 57.8125 43.3446C58.6213 43.3446 58.7375 43.3065 58.7375 43.0414C58.7375 42.8746 58.6509 42.7024 58.5448 42.6584C58.4389 42.6146 58.7067 42.573 59.14 42.5662C59.8999 42.5541 59.9255 42.5679 59.8544 42.9492C59.7818 43.3388 59.7959 43.3446 60.8007 43.3446C61.6139 43.3446 61.8208 43.2954 61.8208 43.1024C61.8208 42.9691 61.6994 42.8134 61.551 42.7563C61.1957 42.6195 61.0136 42.3664 60.3529 41.0904C59.7744 39.9734 59.4633 39.7859 59.0406 40.2994ZM62.9305 40.2787C62.0146 40.7571 61.6913 41.9828 62.2789 42.7492C62.6626 43.2497 63.6119 43.5025 64.732 43.4025C65.2082 43.36 65.8233 43.3317 66.099 43.3399C66.5997 43.3546 66.6 43.3541 66.6 42.5586C66.6 41.7913 66.5847 41.7633 66.176 41.7814C65.0751 41.8301 64.6499 42.1718 65.3667 42.432C65.5327 42.4923 65.4801 42.5641 65.1797 42.6869C64.8786 42.8099 64.6197 42.8088 64.2547 42.6828C63.5362 42.4347 63.3625 42.2577 63.3625 41.7736C63.3625 41.1021 63.6772 40.8028 64.4457 40.743C65.2962 40.6767 65.8329 40.8727 65.9388 41.2886C65.9833 41.4632 66.1491 41.6045 66.3097 41.6045C66.5507 41.6045 66.6 41.4845 66.6 40.899C66.6 40.2357 66.5747 40.1933 66.176 40.1901C65.9429 40.1882 65.2318 40.1476 64.5958 40.0998C63.6921 40.0319 63.3284 40.071 62.9305 40.2787ZM70.3183 40.3208C68.9435 41.0725 69.0981 42.8617 70.5772 43.3163C71.7268 43.6699 72.9509 43.4725 73.6531 42.8205C74.3678 42.1571 73.8056 41.7717 73.0329 42.3955C72.2158 43.055 70.7625 42.66 70.7625 41.7782C70.7625 40.9774 71.3662 40.6868 72.8084 40.7933C72.9588 40.8045 73.1541 40.9767 73.2426 41.1761C73.3312 41.3756 73.5378 41.5492 73.7018 41.5618C73.9538 41.5813 74 41.4797 74 40.9053V40.2259L73.0523 40.1242C71.5629 39.9645 70.8803 40.0136 70.3183 40.3208ZM6.32083 40.4902C6.32083 40.708 6.42135 40.8136 6.62917 40.8136C6.90328 40.8136 6.9375 40.9191 6.9375 41.7627C6.9375 42.6063 6.90328 42.7119 6.62917 42.7119C6.42366 42.7119 6.32083 42.8174 6.32083 43.0282C6.32083 43.3146 6.42366 43.3446 7.4 43.3446C8.37634 43.3446 8.47917 43.3146 8.47917 43.0282C8.47917 42.8174 8.37634 42.7119 8.17083 42.7119C7.93403 42.7119 7.8625 42.6063 7.8625 42.2571C7.8625 41.3861 8.0418 40.8438 8.35784 40.759C8.52727 40.7134 8.63565 40.5826 8.59865 40.4681C8.55348 40.3279 8.17052 40.2447 7.42621 40.2134C6.401 40.1703 6.32083 40.1903 6.32083 40.4902ZM8.7875 40.4972C8.7875 40.708 8.89033 40.8136 9.09583 40.8136C9.36994 40.8136 9.40417 40.9191 9.40417 41.7627C9.40417 42.6176 9.37241 42.7119 9.08458 42.7119C8.86304 42.7119 8.78087 42.797 8.81679 42.9887C8.85996 43.2184 9.03895 43.2655 9.86667 43.2655C10.6944 43.2655 10.8734 43.2184 10.9165 42.9887C10.9525 42.797 10.8703 42.7119 10.6488 42.7119C10.3842 42.7119 10.3292 42.6131 10.3292 42.1389C10.3292 41.5001 10.3121 41.4947 11.3804 42.4746C12.0136 43.0553 12.4783 43.3317 12.8344 43.3391C13.0693 43.3438 13.1042 43.1811 13.1042 42.0791C13.1042 40.9191 13.1299 40.8136 13.4125 40.8136C13.618 40.8136 13.7208 40.708 13.7208 40.4972C13.7208 40.2132 13.618 40.1808 12.7188 40.1808C11.8195 40.1808 11.7167 40.2132 11.7167 40.4972C11.7167 40.6729 11.8195 40.8136 11.9479 40.8136C12.0918 40.8136 12.1792 40.9629 12.1792 41.209C12.1792 41.7401 11.9538 41.7073 11.5286 41.1146C11.0499 40.4472 10.4898 40.1808 9.56604 40.1808C8.89033 40.1808 8.7875 40.2226 8.7875 40.4972ZM14.0292 40.4972C14.0292 40.6729 14.132 40.8136 14.2604 40.8136C14.4403 40.8136 14.4917 41.0244 14.4917 41.7627C14.4917 42.501 14.4403 42.7119 14.2604 42.7119C14.132 42.7119 14.0292 42.8525 14.0292 43.0282C14.0292 43.3165 14.132 43.3446 15.1854 43.3446C16.2388 43.3446 16.3417 43.3165 16.3417 43.0282C16.3417 42.8174 16.2388 42.7119 16.0333 42.7119C15.7598 42.7119 15.725 42.6063 15.725 41.7796C15.725 41.0969 15.7868 40.823 15.9563 40.7563C16.0834 40.7063 16.1875 40.5563 16.1875 40.423C16.1875 40.2286 15.9746 40.1808 15.1083 40.1808C14.132 40.1808 14.0292 40.2108 14.0292 40.4972ZM43.6292 40.4972C43.6292 40.6729 43.732 40.8136 43.8604 40.8136C44.0403 40.8136 44.0917 41.0244 44.0917 41.7627C44.0917 42.501 44.0403 42.7119 43.8604 42.7119C43.732 42.7119 43.6292 42.8525 43.6292 43.0282C43.6292 43.3122 43.732 43.3446 44.6313 43.3446C45.5305 43.3446 45.6333 43.3122 45.6333 43.0282C45.6333 42.8525 45.5305 42.7119 45.4021 42.7119C45.2737 42.7119 45.1708 42.5712 45.1708 42.3955C45.1708 42.1394 45.2737 42.0791 45.7104 42.0791C46.1472 42.0791 46.25 42.0188 46.25 41.7627C46.25 41.499 46.1472 41.4463 45.6333 41.4463C45.1946 41.4463 45.0167 41.3794 45.0167 41.2146C45.0167 40.8828 45.5142 40.6554 46.2398 40.6554C46.7638 40.6554 46.8667 40.7073 46.8667 40.9717C46.8667 41.1826 46.9695 41.2881 47.175 41.2881C47.4246 41.2881 47.4833 41.1826 47.4833 40.7345V40.1808H45.5563C43.732 40.1808 43.6292 40.1977 43.6292 40.4972ZM67.1561 40.431C66.9998 40.8492 67.0485 40.9717 67.3708 40.9717C67.6449 40.9717 67.6792 41.0773 67.6792 41.9209C67.6792 42.749 67.6417 42.8701 67.3853 42.8701C67.1811 42.8701 67.1131 42.9545 67.1626 43.1469C67.2207 43.3729 67.4299 43.4293 68.3043 43.4541C69.2719 43.4816 69.375 43.455 69.375 43.1773C69.375 43.0083 69.2709 42.8701 69.1438 42.8701C68.9623 42.8701 68.9125 42.6522 68.9125 41.8587C68.9125 41.1057 68.9715 40.8242 69.1438 40.7563C69.2709 40.7063 69.375 40.5563 69.375 40.423C69.375 40.0631 67.2908 40.0705 67.1561 40.431ZM41.1901 40.7933C41.5743 40.8234 41.9333 41.2587 41.9333 41.6948C41.9333 42.6807 40.4455 43.0979 39.691 42.3235C39.2699 41.8916 39.237 41.7287 39.4767 41.2688C39.6625 40.9129 40.1529 40.6846 40.6181 40.7375C40.7903 40.7571 41.0476 40.7822 41.1901 40.7933ZM28.6374 41.0904C28.6801 41.2239 28.5211 41.2881 28.1482 41.2881C27.75 41.2881 27.5958 41.2192 27.5958 41.0409C27.5958 40.7368 28.5387 40.7818 28.6374 41.0904ZM59.5641 41.6836C59.6244 41.845 59.5558 41.9209 59.3494 41.9209C59.0465 41.9209 58.9541 41.7513 59.1487 41.5518C59.3152 41.381 59.4692 41.4299 59.5641 41.6836ZM2.23495 44.2946C2.18208 44.3824 2.22987 44.4898 2.34133 44.5331C2.75311 44.6939 71.6875 44.5346 71.6875 44.3729C71.6875 44.1522 2.36785 44.0741 2.23495 44.2946ZM6.475 45.4011C6.475 45.4881 6.54437 45.5593 6.62917 45.5593C6.71396 45.5593 6.78333 45.9508 6.78333 46.4294C6.78333 46.9079 6.71396 47.2994 6.62917 47.2994C6.54437 47.2994 6.475 47.416 6.475 47.5584C6.475 47.7803 6.61945 47.8055 7.48448 47.7341C8.72522 47.632 9.09583 47.3444 9.09583 46.484C9.09583 45.5446 8.7024 45.2429 7.47708 45.2429C6.91175 45.2429 6.475 45.3119 6.475 45.4011ZM11.4083 45.4011C11.4083 45.4881 11.5124 45.5593 11.6396 45.5593C11.8172 45.5593 11.8708 45.7615 11.8708 46.4294C11.8708 47.0973 11.8172 47.2994 11.6396 47.2994C11.5124 47.2994 11.4083 47.4062 11.4083 47.5367C11.4083 47.7278 11.6482 47.774 12.6417 47.774H13.875V47.2203C13.875 46.6175 13.6462 46.4767 13.4896 46.983C13.421 47.2047 13.2563 47.2994 12.9397 47.2994C12.5903 47.2994 12.4875 47.2275 12.4875 46.983C12.4875 46.809 12.5569 46.6667 12.6417 46.6667C12.7265 46.6667 12.7958 46.7734 12.7958 46.904C12.7958 47.0345 12.8999 47.1412 13.0271 47.1412C13.2011 47.1412 13.2623 46.9361 13.2747 46.3107C13.2899 45.5443 13.3041 45.5138 13.4586 45.9153C13.6891 46.5134 13.875 46.4604 13.875 45.7966V45.2429H12.6417C11.9222 45.2429 11.4083 45.3089 11.4083 45.4011ZM16.3417 45.3333C16.3417 45.3831 16.444 45.5288 16.5692 45.6572C16.8558 45.9513 16.8313 47.2994 16.5395 47.2994C16.4306 47.2994 16.3417 47.4062 16.3417 47.5367C16.3417 47.7125 16.5216 47.774 17.0354 47.774C17.5493 47.774 17.7292 47.7125 17.7292 47.5367C17.7292 47.4062 17.6251 47.2994 17.4979 47.2994C17.3695 47.2994 17.2667 47.1588 17.2667 46.983C17.2667 46.744 17.3703 46.666 17.6906 46.6643C18.2388 46.6611 18.4917 46.4887 18.5715 46.0636C18.6778 45.4972 18.2701 45.2429 17.2557 45.2429C16.753 45.2429 16.3417 45.2836 16.3417 45.3333ZM21.3541 45.8159C21.2258 46.131 21.1208 46.487 21.1208 46.6069C21.1208 46.7268 20.9821 46.9672 20.8125 47.1412C20.3585 47.6071 20.4331 47.774 21.0951 47.774C21.5177 47.774 21.6862 47.7063 21.6862 47.5367C21.6862 47.4062 21.6283 47.2994 21.5576 47.2994C21.487 47.2994 21.4292 47.2282 21.4292 47.1412C21.4292 47.0542 21.6026 46.983 21.8146 46.983C22.0266 46.983 22.2 47.0542 22.2 47.1412C22.2 47.2282 22.1306 47.2994 22.0458 47.2994C21.961 47.2994 21.8917 47.4062 21.8917 47.5367C21.8917 47.708 22.0629 47.774 22.5083 47.774C22.9537 47.774 23.125 47.708 23.125 47.5367C23.125 47.4062 23.0684 47.2994 22.9994 47.2994C22.9303 47.2994 22.7145 46.8367 22.5199 46.2712C22.0982 45.0457 21.7269 44.9006 21.3541 45.8159ZM25.4375 45.4011C25.4375 45.4881 25.5069 45.5593 25.5917 45.5593C25.6765 45.5593 25.7458 45.9508 25.7458 46.4294C25.7458 46.9079 25.6765 47.2994 25.5917 47.2994C25.5069 47.2994 25.4375 47.4062 25.4375 47.5367C25.4375 47.708 25.6088 47.774 26.0542 47.774C26.4996 47.774 26.6708 47.708 26.6708 47.5367C26.6708 47.4062 26.6095 47.2994 26.5347 47.2994C26.4598 47.2994 26.3665 47.1278 26.3274 46.9182C26.2657 46.5871 26.2988 46.5529 26.5793 46.6592C26.7712 46.7318 26.934 46.9666 26.9807 47.2382C27.0425 47.5978 27.1409 47.6949 27.4432 47.6949C27.7293 47.6949 27.8402 47.5998 27.8786 47.3214C27.9116 47.0822 27.8696 46.9864 27.7619 47.0546C27.4905 47.2267 27.3905 46.7008 27.5971 46.1891C27.8903 45.4627 27.6171 45.2429 26.4208 45.2429C25.8681 45.2429 25.4375 45.3122 25.4375 45.4011ZM30.2167 45.7966C30.2167 46.4006 30.4734 46.561 30.5527 46.0067C30.5799 45.8178 30.6889 45.6338 30.7948 45.5981C30.9335 45.5513 30.9875 45.7803 30.9875 46.4162C30.9875 47.0958 30.9342 47.2994 30.7563 47.2994C30.6291 47.2994 30.525 47.4062 30.525 47.5367C30.525 47.716 30.7134 47.774 31.2958 47.774C31.8783 47.774 32.0667 47.716 32.0667 47.5367C32.0667 47.4062 31.9372 47.2994 31.7787 47.2994C31.5302 47.2994 31.4933 47.18 31.5089 46.4254C31.5232 45.7403 31.577 45.5612 31.7583 45.5965C31.8855 45.6213 32.0118 45.801 32.0389 45.9959C32.1172 46.5594 32.375 46.4064 32.375 45.7966V45.2429H31.2958H30.2167V45.7966ZM34.6875 45.4011C34.6875 45.4881 34.7569 45.5593 34.8417 45.5593C34.9265 45.5593 34.9958 45.9508 34.9958 46.4294C34.9958 46.9079 34.9265 47.2994 34.8417 47.2994C34.7569 47.2994 34.6875 47.4062 34.6875 47.5367C34.6875 47.708 34.8588 47.774 35.3042 47.774C35.7496 47.774 35.9208 47.708 35.9208 47.5367C35.9208 47.4062 35.8168 47.2994 35.6896 47.2994C35.5185 47.2994 35.4613 47.1245 35.4697 46.6271L35.4812 45.9548L35.7667 46.5876C35.9236 46.9356 36.0573 47.345 36.0636 47.4972C36.0873 48.0743 36.4752 47.7389 36.7954 46.8644L37.1287 45.9548L37.1414 46.6271C37.1509 47.1251 37.0942 47.2994 36.9229 47.2994C36.7957 47.2994 36.6917 47.4062 36.6917 47.5367C36.6917 47.7125 36.8716 47.774 37.3854 47.774C37.8993 47.774 38.0792 47.7125 38.0792 47.5367C38.0792 47.4062 37.9751 47.2994 37.8479 47.2994C37.6703 47.2994 37.6167 47.0973 37.6167 46.4294C37.6167 45.7615 37.6703 45.5593 37.8479 45.5593C37.9751 45.5593 38.0792 45.4881 38.0792 45.4011C38.0792 45.3141 37.8044 45.2429 37.4687 45.2429C36.8901 45.2429 36.8486 45.276 36.6735 45.8757C36.5719 46.2237 36.4413 46.5085 36.3833 46.5085C36.3254 46.5085 36.1948 46.2237 36.0932 45.8757C35.9181 45.276 35.8766 45.2429 35.298 45.2429C34.9622 45.2429 34.6875 45.3141 34.6875 45.4011ZM40.2375 45.4011C40.2375 45.4881 40.3416 45.5593 40.4688 45.5593C40.6464 45.5593 40.7 45.7615 40.7 46.4294C40.7 47.0973 40.6464 47.2994 40.4688 47.2994C40.3416 47.2994 40.2375 47.4062 40.2375 47.5367C40.2375 47.7278 40.4774 47.774 41.4708 47.774H42.7042V47.2203C42.7042 46.6175 42.4754 46.4767 42.3188 46.983C42.2501 47.2047 42.0855 47.2994 41.7688 47.2994C41.4195 47.2994 41.3167 47.2275 41.3167 46.983C41.3167 46.809 41.386 46.6667 41.4708 46.6667C41.5556 46.6667 41.625 46.7734 41.625 46.904C41.625 47.0345 41.6944 47.1412 41.7792 47.1412C41.864 47.1412 41.9333 46.8209 41.9333 46.4294C41.9333 46.0378 41.864 45.7175 41.7792 45.7175C41.6944 45.7175 41.625 45.8243 41.625 45.9548C41.625 46.2543 41.3769 46.265 41.2667 45.9703C41.1529 45.6659 41.2917 45.5593 41.802 45.5593C42.1362 45.5593 42.258 45.6501 42.3325 45.9548C42.4743 46.5347 42.7042 46.4368 42.7042 45.7966V45.2429H41.4708C40.7513 45.2429 40.2375 45.3089 40.2375 45.4011ZM45.1708 45.4011C45.1708 45.4881 45.2402 45.5593 45.325 45.5593C45.4098 45.5593 45.4792 45.9508 45.4792 46.4294C45.4792 46.9079 45.4172 47.2994 45.3415 47.2994C45.2658 47.2994 45.1639 47.4062 45.115 47.5367C45.0447 47.725 45.1634 47.774 45.6896 47.774C46.1763 47.774 46.3528 47.7109 46.3528 47.5367C46.3528 47.4062 46.2603 47.2994 46.1472 47.2994C46.0046 47.2994 45.942 47.0693 45.9426 46.548L45.9435 45.7966L46.1826 46.2671C46.7308 47.3458 47.0601 47.774 47.3418 47.774C47.6051 47.774 47.6375 47.6528 47.6375 46.6667C47.6375 46.0339 47.7036 45.5593 47.7917 45.5593C47.8765 45.5593 47.9458 45.4881 47.9458 45.4011C47.9458 45.3141 47.6683 45.2429 47.3292 45.2429C46.99 45.2429 46.7125 45.3141 46.7125 45.4011C46.7125 45.4881 46.8166 45.5593 46.9438 45.5593C47.1135 45.5593 47.1741 45.7379 47.1716 46.2316L47.1682 46.904L46.6963 46.0734C46.2728 45.328 46.1706 45.2429 45.6976 45.2429C45.4079 45.2429 45.1708 45.3141 45.1708 45.4011ZM50.2583 45.7966C50.2583 46.4006 50.515 46.561 50.5944 46.0067C50.6215 45.8178 50.7305 45.6338 50.8365 45.5981C50.9752 45.5513 51.0292 45.7803 51.0292 46.4162C51.0292 46.9021 50.9598 47.2994 50.875 47.2994C50.7902 47.2994 50.7208 47.4062 50.7208 47.5367C50.7208 47.7125 50.9007 47.774 51.4146 47.774C51.9284 47.774 52.1083 47.7125 52.1083 47.5367C52.1083 47.4062 52.0043 47.2994 51.8771 47.2994C51.6995 47.2994 51.6458 47.0973 51.6458 46.4294C51.6458 45.5089 51.8612 45.2879 52.1083 45.9548C52.32 46.5262 52.5708 46.4404 52.5708 45.7966V45.2429H51.4146H50.2583V45.7966ZM60.5847 45.678C60.3385 45.9991 60.2728 46.2494 60.3337 46.6341C60.5803 48.1931 62.9 48.1008 62.9 46.5322C62.9 45.6003 62.5588 45.2429 61.6691 45.2429C61.0337 45.2429 60.867 45.3099 60.5847 45.678ZM65.2125 45.4011C65.2125 45.4881 65.3166 45.5593 65.4437 45.5593C65.6214 45.5593 65.675 45.7615 65.675 46.4294C65.675 47.0973 65.6214 47.2994 65.4437 47.2994C65.3166 47.2994 65.2125 47.4062 65.2125 47.5367C65.2125 47.7125 65.3924 47.774 65.9062 47.774C66.4406 47.774 66.6 47.7156 66.6 47.5198C66.6 47.3719 66.5134 47.2998 66.3928 47.3472C66.242 47.4065 66.2063 47.3181 66.2613 47.0226C66.3287 46.661 66.3575 46.6451 66.524 46.8788C66.8206 47.2948 66.9083 47.1923 66.9083 46.4294C66.9083 46.0378 66.839 45.7175 66.7542 45.7175C66.6694 45.7175 66.6 45.8243 66.6 45.9548C66.6 46.0853 66.5306 46.1921 66.4458 46.1921C66.361 46.1921 66.2917 46.045 66.2917 45.8653C66.2917 45.3777 67.12 45.4968 67.1889 45.9943C67.2671 46.5591 67.525 46.4074 67.525 45.7966V45.2429H66.3688C65.7007 45.2429 65.2125 45.3097 65.2125 45.4011ZM8.38281 46.0513C8.4602 46.2783 8.47747 46.652 8.42135 46.8818C8.33949 47.2164 8.22772 47.2994 7.85957 47.2994C7.40462 47.2994 7.4 47.2906 7.4 46.4189C7.4 45.553 7.40694 45.5391 7.82118 45.5884C8.11302 45.6231 8.28538 45.7651 8.38281 46.0513ZM12.9885 45.664C12.8826 45.708 12.7958 45.8447 12.7958 45.9679C12.7958 46.0913 12.7265 46.1921 12.6417 46.1921C12.5569 46.1921 12.4875 46.0497 12.4875 45.8757C12.4875 45.6493 12.5862 45.5628 12.8344 45.5718C13.0251 45.5786 13.0946 45.6202 12.9885 45.664ZM17.9518 45.7033C18.0999 45.9493 17.8898 46.2824 17.571 46.3071C17.345 46.3245 17.2667 46.2315 17.2667 45.945C17.2667 45.6686 17.3515 45.5593 17.5659 45.5593C17.7306 45.5593 17.9041 45.624 17.9518 45.7033ZM27.1045 45.9153C27.1427 46.1209 27.0539 46.1921 26.7592 46.1921C26.4609 46.1921 26.3625 46.1109 26.3625 45.8646C26.3625 45.6161 26.4456 45.5495 26.7078 45.5878C26.8978 45.6156 27.0763 45.7631 27.1045 45.9153ZM62.0983 45.7492C62.2001 45.8536 62.2833 46.2111 62.2833 46.5434C62.2833 47.0421 62.2126 47.1811 61.8799 47.3366C61.5236 47.5032 61.4422 47.4821 61.1861 47.1575C60.849 46.7303 60.8289 46.5159 61.0748 45.9622C61.2672 45.5286 61.7795 45.422 62.0983 45.7492ZM21.8878 46.5757C21.6835 46.7853 21.5564 46.6064 21.6783 46.2805C21.7585 46.0658 21.8075 46.0522 21.9068 46.2171C21.9762 46.3324 21.9677 46.4938 21.8878 46.5757ZM29.7896 48.8103C28.8017 49.5205 28.8006 51.0891 29.7876 51.7983C30.1791 52.0797 30.8713 52.1202 31.2966 51.8865C31.4896 51.7805 31.6171 51.7805 31.6809 51.8865C31.8895 52.2327 32.0667 52.0126 32.0667 51.4075C32.0667 50.9866 32.1453 50.7388 32.2979 50.6787C32.4251 50.6286 32.5292 50.4884 32.5292 50.3673C32.5292 50.2056 32.3032 50.1469 31.6812 50.1469C31.0304 50.1469 30.8333 50.2019 30.8333 50.3842C30.8333 50.5147 30.9332 50.6215 31.0555 50.6215C31.3839 50.6215 31.4865 50.8885 31.2975 51.2509C31.0893 51.6502 30.5026 51.6658 30.1635 51.2813C29.8044 50.8741 29.8211 49.6443 30.1903 49.3014C30.626 48.8967 31.0889 48.9783 31.3974 49.5141C31.802 50.2168 32.0667 50.123 32.0667 49.2768C32.0667 48.6127 31.8972 48.3644 31.6849 48.7172C31.6262 48.8146 31.4529 48.8146 31.2032 48.7172C30.6431 48.4985 30.1811 48.5291 29.7896 48.8103ZM44.3121 48.7176C43.8119 48.9253 43.475 49.5916 43.475 50.3731C43.475 50.9491 43.5624 51.1769 43.9323 51.5652C44.5352 52.1982 45.4588 52.2385 46.0257 51.6568C46.4467 51.225 46.5324 50.6215 46.1729 50.6215C46.0457 50.6215 45.9417 50.6927 45.9417 50.7797C45.9417 51.0223 45.3538 51.5706 45.0938 51.5706C44.6612 51.5706 44.2458 50.9679 44.2458 50.3404C44.2458 49.6056 44.6083 49.0395 45.0786 49.0395C45.4443 49.0395 45.9417 49.4798 45.9417 49.8035C45.9417 49.9053 46.0457 49.9887 46.1729 49.9887C46.3442 49.9887 46.4042 49.8041 46.4042 49.2768C46.4042 48.7496 46.3442 48.565 46.1729 48.565C46.0457 48.565 45.9417 48.6387 45.9417 48.7287C45.9417 48.8416 45.849 48.8416 45.6435 48.7287C45.2929 48.5362 44.7595 48.5317 44.3121 48.7176ZM12.3333 48.8644C12.3333 48.9421 12.4374 49.0467 12.5646 49.0968C12.7419 49.1666 12.7958 49.4662 12.7958 50.3793C12.7958 51.3329 12.7497 51.5706 12.5646 51.5706C12.4374 51.5706 12.3333 51.6418 12.3333 51.7288C12.3333 51.8158 12.6802 51.887 13.1042 51.887C13.5281 51.887 13.875 51.8158 13.875 51.7288C13.875 51.6418 13.7709 51.5706 13.6438 51.5706C13.4662 51.5706 13.4125 51.3685 13.4125 50.7006C13.4125 50.222 13.4418 49.8305 13.4776 49.8305C13.5135 49.8305 13.6226 50.0975 13.7202 50.4237C14.2743 52.2758 14.4622 52.3083 15.0911 50.661L15.5591 49.435L15.565 50.4286C15.5693 51.1701 15.5121 51.4455 15.3396 51.5134C14.8644 51.7005 15.1338 51.887 15.8792 51.887C16.6246 51.887 16.8939 51.7005 16.4188 51.5134C16.2435 51.4444 16.1875 51.1524 16.1875 50.3051C16.1875 49.4578 16.2435 49.1658 16.4188 49.0968C16.8752 48.9171 16.6372 48.7232 15.9601 48.7232C15.2933 48.7232 15.2597 48.7467 14.958 49.4263C14.7863 49.8131 14.6458 50.2046 14.6458 50.2964C14.6458 50.7488 14.3645 50.3679 14.1266 49.5932L13.8593 48.7232H13.0963C12.6767 48.7232 12.3333 48.7868 12.3333 48.8644ZM22.3653 49.0791C21.7131 50.78 21.509 51.2215 21.2317 51.5311L20.9129 51.887H21.7878C22.2689 51.887 22.6625 51.8158 22.6625 51.7288C22.6625 51.6418 22.5302 51.5706 22.3687 51.5706C22.1507 51.5706 22.0955 51.4888 22.1553 51.2542C22.2575 50.8532 23.195 50.8009 23.3398 51.1881C23.472 51.5417 23.4615 51.5706 23.2021 51.5706C23.0749 51.5706 22.9708 51.6418 22.9708 51.7288C22.9708 51.8158 23.3524 51.887 23.8188 51.887C24.2851 51.887 24.6667 51.8158 24.6667 51.7288C24.6667 51.6418 24.5604 51.5706 24.4306 51.5706C24.3007 51.5706 24.1695 51.4817 24.139 51.3729C24.1084 51.2642 23.8864 50.6234 23.6456 49.9492C23.2738 48.9076 23.1548 48.7232 22.8547 48.7232C22.6318 48.7232 22.4514 48.8543 22.3653 49.0791ZM37 48.8628C37 48.9397 37.1388 49.0399 37.3083 49.0854C37.5806 49.1585 37.6167 49.3012 37.6167 50.3051C37.6167 51.309 37.5806 51.4517 37.3083 51.5247C36.71 51.6853 37.0103 51.887 37.8479 51.887C38.3143 51.887 38.6958 51.8158 38.6958 51.7288C38.6958 51.6418 38.6317 51.5706 38.5534 51.5706C38.4751 51.5706 38.3884 51.0068 38.3607 50.3179C38.3331 49.6288 38.3712 49.077 38.4453 49.0919C38.5195 49.1066 38.612 49.0297 38.6508 48.9209C38.702 48.7777 38.4843 48.7232 37.8607 48.7232C37.3873 48.7232 37 48.7861 37 48.8628ZM51.7184 50.0044C51.4665 50.717 51.1389 51.3779 50.9906 51.4733C50.5371 51.7647 50.6851 51.887 51.4917 51.887C51.9156 51.887 52.2625 51.8158 52.2625 51.7288C52.2625 51.6418 52.151 51.5706 52.0148 51.5706C51.8521 51.5706 51.7992 51.4846 51.8606 51.3204C51.9121 51.1827 51.9542 51.0404 51.9542 51.004C51.9542 50.9676 52.197 50.9379 52.4938 50.9379C52.9305 50.9379 53.0333 50.9981 53.0333 51.2542C53.0333 51.43 52.9305 51.5706 52.8021 51.5706C52.6749 51.5706 52.5708 51.6418 52.5708 51.7288C52.5708 51.8158 52.9524 51.887 53.4188 51.887C54.1779 51.887 54.5506 51.6942 54.0935 51.5377C53.9984 51.5053 53.702 50.8765 53.4349 50.1404C53.0176 48.9902 52.895 48.7958 52.563 48.7556C52.2085 48.7127 52.1384 48.8165 51.7184 50.0044ZM58.7375 48.8644C58.7375 48.9421 58.8416 49.0467 58.9688 49.0968C59.144 49.1658 59.2 49.4578 59.2 50.3051C59.2 51.1524 59.144 51.4444 58.9688 51.5134C58.3851 51.7432 58.8596 51.887 60.2021 51.887H61.6667V51.1751C61.6667 50.4049 61.4246 50.216 61.2664 50.8629C61.1596 51.2998 60.7858 51.5706 60.2893 51.5706C59.9957 51.5706 59.9708 51.4778 59.9708 50.3793C59.9708 49.4662 60.0248 49.1666 60.2021 49.0968C60.6936 48.9032 60.3963 48.7232 59.5854 48.7232C59.1191 48.7232 58.7375 48.7868 58.7375 48.8644ZM52.7142 50.2655C52.7201 50.3744 52.6209 50.4633 52.4938 50.4633C52.236 50.4633 52.2224 50.3962 52.3676 49.839C52.4611 49.4806 52.4771 49.4747 52.5859 49.7599C52.6505 49.9292 52.7082 50.1569 52.7142 50.2655ZM22.9685 50.2655C22.9698 50.3744 22.8668 50.4633 22.7396 50.4633C22.4884 50.4633 22.4538 50.3185 22.6068 49.9093C22.6855 49.699 22.7317 49.6884 22.8358 49.8568C22.9075 49.9729 22.9671 50.1569 22.9685 50.2655ZM18.6542 53.0734C18.6542 53.204 18.7582 53.3107 18.8854 53.3107C19.0672 53.3107 19.1167 53.5305 19.1167 54.339C19.1167 55.1475 19.0672 55.3672 18.8854 55.3672C18.7582 55.3672 18.6542 55.4384 18.6542 55.5254C18.6542 55.6292 15.4424 55.6836 9.32708 55.6836C3.21175 55.6836 0 55.738 0 55.8418C0 55.9468 12.4362 56 37 56C61.5638 56 74 55.9468 74 55.8418C74 55.738 70.7368 55.6836 64.5188 55.6836H55.0375V54.4972C55.0375 53.8117 55.1026 53.3107 55.1917 53.3107C55.2765 53.3107 55.3458 53.204 55.3458 53.0734C55.3458 52.8979 55.1665 52.8362 54.6569 52.8362C54.1079 52.8362 53.9861 52.8844 54.0567 53.0734C54.1056 53.204 54.2075 53.3107 54.2832 53.3107C54.3589 53.3107 54.4201 53.6134 54.4191 53.983L54.4173 54.6554L53.841 53.7478C53.3094 52.911 53.2196 52.8403 52.6865 52.8382C52.2744 52.8368 52.1083 52.9043 52.1083 53.0734C52.1083 53.204 52.2124 53.3107 52.3396 53.3107C52.5213 53.3107 52.5708 53.5305 52.5708 54.339C52.5708 55.1475 52.5213 55.3672 52.3396 55.3672C52.2124 55.3672 52.1083 55.4384 52.1083 55.5254C52.1083 55.6162 51.6369 55.6836 51.0023 55.6836H49.8962L50.2315 55.3176C50.4666 55.0607 50.5667 54.7515 50.5667 54.2817C50.5667 53.4172 50.0815 52.9153 49.1937 52.8616C47.751 52.7741 46.9908 54.2789 47.9458 55.3308L48.2662 55.6836H47.1701C46.4256 55.6836 46.0032 55.6112 45.8536 55.4576C45.5983 55.1958 45.5404 53.3107 45.7875 53.3107C45.8723 53.3107 45.9417 53.204 45.9417 53.0734C45.9417 52.8942 45.7533 52.8362 45.1708 52.8362C44.5884 52.8362 44.4 52.8942 44.4 53.0734C44.4 53.204 44.5041 53.3107 44.6313 53.3107C44.813 53.3107 44.8625 53.5305 44.8625 54.339C44.8625 55.1475 44.813 55.3672 44.6313 55.3672C44.5041 55.3672 44.4 55.4384 44.4 55.5254C44.4 55.6132 43.9895 55.6836 43.4767 55.6836C42.2002 55.6836 41.9333 55.4294 41.9333 54.2131C41.9333 53.417 41.9711 53.2949 42.2031 53.3403C42.3514 53.3693 42.4951 53.5525 42.5223 53.7473C42.6117 54.3912 43.0125 54.1637 43.0125 53.4689V52.8362H41.7021H40.3917V53.4689C40.3917 54.1637 40.7925 54.3912 40.8819 53.7473C40.909 53.5525 41.0503 53.3697 41.1956 53.3414C41.4164 53.2982 41.459 53.4155 41.4539 54.0515C41.446 55.0312 41.3494 55.3672 41.0751 55.3672C40.9536 55.3672 40.8542 55.4384 40.8542 55.5254C40.8542 55.7713 39.3227 55.7167 39.0746 55.4621C38.9559 55.3402 38.6568 54.7174 38.41 54.078C37.7289 52.3129 37.3686 52.4215 36.7589 54.5763C36.5098 55.4568 36.2154 55.6733 35.2602 55.6787C34.4256 55.6833 34.3786 55.664 34.5279 55.3777C34.6157 55.2094 34.6875 54.9602 34.6875 54.824C34.6875 54.4652 34.3647 54.5196 34.2692 54.8944C34.1714 55.2782 33.5354 55.4751 33.2308 55.2158C32.9033 54.9369 32.7755 54.1207 32.9937 53.7023C33.2709 53.1711 33.8774 53.1022 34.1749 53.5681C34.507 54.0881 34.6875 54.0372 34.6875 53.4238C34.6875 52.9056 34.6852 52.904 33.8636 52.8687C33.174 52.8392 32.9729 52.8969 32.6303 53.2226C32.0926 53.7341 32.0559 54.7712 32.556 55.3176L32.8913 55.6836H31.3689C30.1849 55.6836 29.8878 55.6414 30.0317 55.4938C30.1334 55.3894 30.2167 54.8998 30.2167 54.4057C30.2167 53.8005 30.2921 53.4435 30.4479 53.3107C30.8421 52.975 30.7068 52.8362 29.9854 52.8362C29.4716 52.8362 29.2917 52.8977 29.2917 53.0734C29.2917 53.204 29.3957 53.3107 29.5229 53.3107C29.7025 53.3107 29.7542 53.5205 29.7542 54.2493C29.7542 55.0561 29.7099 55.2021 29.4384 55.2905C28.9183 55.4599 28.675 55.1002 28.675 54.1615C28.675 53.5107 28.7294 53.3107 28.9062 53.3107C29.0334 53.3107 29.1375 53.204 29.1375 53.0734C29.1375 52.8942 28.9491 52.8362 28.3667 52.8362C27.7842 52.8362 27.5958 52.8942 27.5958 53.0734C27.5958 53.204 27.6999 53.3107 27.8271 53.3107C28.005 53.3107 28.0583 53.514 28.0583 54.1912C28.0583 54.6755 28.1302 55.2094 28.2179 55.3777C28.3705 55.6703 28.313 55.6836 26.8964 55.6836H25.4151L25.7346 55.2668C26.0468 54.8596 26.1502 54.068 25.9584 53.5551C25.7919 53.11 25.0388 52.8362 23.9806 52.8362C23.1857 52.8362 22.9708 52.8866 22.9708 53.0734C22.9708 53.204 23.0749 53.3107 23.2021 53.3107C23.4188 53.3107 23.4676 53.5139 23.4676 54.4181C23.4676 55.1929 23.4188 55.3672 23.2021 55.3672C23.0749 55.3672 22.9708 55.4384 22.9708 55.5254C22.9708 55.6124 22.582 55.6836 22.1067 55.6836H21.2426L21.3014 55.0508C21.3422 54.6115 21.3 54.4181 21.1634 54.4181C21.0552 54.4181 20.9667 54.5462 20.9667 54.7028C20.9667 55.1136 20.6608 55.3672 20.165 55.3672C19.7882 55.3672 19.7333 55.307 19.7333 54.8927C19.7333 54.3594 20.0272 54.2482 20.1511 54.7345C20.3107 55.3603 20.6583 55.0893 20.6583 54.339C20.6583 53.8359 20.5953 53.6271 20.4436 53.6271C20.3255 53.6271 20.1889 53.7339 20.14 53.8644C19.9973 54.2461 19.7333 54.1373 19.7333 53.6967C19.7333 53.3253 19.7814 53.2957 20.3115 53.3408C20.7758 53.3802 20.8993 53.4599 20.9389 53.7458C21.0185 54.3214 21.2377 54.1539 21.3014 53.4689L21.3603 52.8362H20.0071C18.9073 52.8362 18.6542 52.8806 18.6542 53.0734ZM25.1412 53.5627C25.2533 53.7015 25.345 54.0658 25.345 54.3724C25.345 54.963 24.9947 55.3672 24.4831 55.3672C24.2426 55.3672 24.2042 55.2255 24.2042 54.339C24.2042 53.3618 24.2224 53.3107 24.5708 53.3107C24.7723 53.3107 25.029 53.4242 25.1412 53.5627ZM49.6825 53.6221C49.9865 54.0675 49.8153 55.2649 49.4368 55.3395C48.854 55.4546 48.4356 55.2222 48.3291 54.7242C48.1692 53.9772 48.5021 53.3107 49.035 53.3107C49.2929 53.3107 49.5566 53.4374 49.6825 53.6221ZM37.6714 54.3925C37.3604 54.464 37.2804 54.3602 37.4001 54.0406C37.4912 53.7967 37.5149 53.7981 37.7016 54.0576C37.8721 54.2942 37.8673 54.3475 37.6714 54.3925ZM53.7858 54.8531L54.2587 55.6836H53.8772C53.6674 55.6836 53.4958 55.6124 53.4958 55.5254C53.4958 55.4384 53.3918 55.3672 53.2646 55.3672C53.0887 55.3672 53.0333 55.1704 53.0333 54.5446C53.0333 53.6178 53.0976 53.644 53.7858 54.8531ZM38.0792 55.0621C38.0792 55.3519 37.574 55.7896 37.5006 55.5635C37.4654 55.4555 37.3407 55.3672 37.2232 55.3672C37.0968 55.3672 37.0458 55.2704 37.0984 55.1299C37.1993 54.8599 38.0792 54.7992 38.0792 55.0621Z" fill="white"/>
</svg>
